HIERARCHY
ROOT Pelvis
{
	OFFSET 0.000000 0.000000 0.000000
	CHANNELS 6 Xposition Yposition Zposition Zrotation Yrotation Xrotation 
	JOINT Left_hip
	{
		OFFSET 0.068973 -0.091024 -0.007589
		CHANNELS 3 Zrotation Yrotation Xrotation
		JOINT Left_knee
		{
			OFFSET 0.036482 -0.391037 -0.003979
			CHANNELS 3 Zrotation Yrotation Xrotation
			JOINT Left_ankle
			{
				OFFSET -0.012239 -0.415469 -0.043440
				CHANNELS 3 Zrotation Yrotation Xrotation
				JOINT Left_foot
				{
					OFFSET 0.023806 -0.058558 0.118702
					CHANNELS 3 Zrotation Yrotation Xrotation
					End Site
					{
						OFFSET 0.000000 0.000000 0.000000
					}
				}
			}
		}
	}
	JOINT Right_hip
	{
		OFFSET -0.066552 -0.090468 -0.003847
		CHANNELS 3 Zrotation Yrotation Xrotation
		JOINT Right_knee
		{
			OFFSET -0.042435 -0.398340 -0.006400
			CHANNELS 3 Zrotation Yrotation Xrotation
			JOINT Right_ankle
			{
				OFFSET 0.014931 -0.415421 -0.041327
				CHANNELS 3 Zrotation Yrotation Xrotation
				JOINT Right_foot
				{
					OFFSET -0.021472 -0.049410 0.121889
					CHANNELS 3 Zrotation Yrotation Xrotation
					End Site
					{
						OFFSET 0.000000 0.000000 0.000000
					}
				}
			}
		}
	}
	JOINT Spine1
	{
		OFFSET -0.002904 0.105700 -0.022855
		CHANNELS 3 Zrotation Yrotation Xrotation
		JOINT Spine2
		{
			OFFSET 0.004179 0.132554 -0.002501
			CHANNELS 3 Zrotation Yrotation Xrotation
			JOINT Spine3
			{
				OFFSET 0.001987 0.049603 0.025988
				CHANNELS 3 Zrotation Yrotation Xrotation
				JOINT Neck
				{
					OFFSET -0.003935 0.211336 -0.045638
					CHANNELS 3 Zrotation Yrotation Xrotation
					JOINT Head
					{
						OFFSET 0.003906 0.065991 0.051018
						CHANNELS 3 Zrotation Yrotation Xrotation
						End Site
						{
							OFFSET 0.000000 0.000000 0.000000
						}
					}
				}
				JOINT Left_collar
				{
					OFFSET 0.072882 0.117751 -0.036270
					CHANNELS 3 Zrotation Yrotation Xrotation
					JOINT Left_shoulder
					{
						OFFSET 0.082118 0.032630 -0.005771
						CHANNELS 3 Zrotation Yrotation Xrotation
						JOINT Left_elbow
						{
							OFFSET 0.263305 -0.015144 -0.028095
							CHANNELS 3 Zrotation Yrotation Xrotation
							JOINT Left_wrist
							{
								OFFSET 0.250741 0.010115 -0.000759
								CHANNELS 3 Zrotation Yrotation Xrotation
								JOINT Left_palm
								{
									OFFSET 0.080683 -0.009989 -0.013613
									CHANNELS 3 Zrotation Yrotation Xrotation
									End Site
									{
										OFFSET 0.000000 0.000000 0.000000
									}
								}
							}
						}
					}
				}
				JOINT Right_collar
				{
					OFFSET -0.074811 0.116132 -0.040385
					CHANNELS 3 Zrotation Yrotation Xrotation
					JOINT Right_shoulder
					{
						OFFSET -0.085089 0.032943 -0.007484
						CHANNELS 3 Zrotation Yrotation Xrotation
						JOINT Right_elbow
						{
							OFFSET -0.254763 -0.014219 -0.020321
							CHANNELS 3 Zrotation Yrotation Xrotation
							JOINT Right_wrist
							{
								OFFSET -0.256597 0.009233 -0.005063
								CHANNELS 3 Zrotation Yrotation Xrotation
								JOINT Right_palm
								{
									OFFSET -0.080528 -0.007219 -0.010379
									CHANNELS 3 Zrotation Yrotation Xrotation
									End Site
									{
										OFFSET 0.000000 0.000000 0.000000
									}
								}
							}
						}
					}
				}
			}
		}
	}
}
MOTION
Frames: 12
Frame Time: 0.100000
-1.851358 -0.421737 1.890363 179.310429 -29.579622 -12.917222 9.990749 16.713198 8.900848 -5.109723 11.845314 -9.821855 0.852874 19.203263 4.399148 1.236147 5.195264 -4.408459 -4.578033 -8.816312 0.434697 1.504415 -5.058282 6.312146 3.996697 -11.889749 5.862580 -2.380255 0.681386 4.166530 -3.509938 -0.569530 5.285057 2.966201 -7.730385 18.543611 0.945815 -2.953312 -1.737521 8.087799 -11.899890 7.678007 12.437187 -15.833727 -15.411585 -23.081157 -9.676762 9.785355 -44.274453 -4.681573 5.918753 3.935372 -14.754347 3.435895 -8.338842 -2.852201 26.936524 -11.653835 -9.026332 -18.231839 22.632574 9.278088 7.070833 58.061315 -13.218299 5.420492 -4.240845 22.263796 12.009989 9.425613 3.758497 10.690488 13.654810 7.049939 -6.073206 
-1.841862 -0.420152 1.888767 -177.735652 -37.525769 -14.156846 10.513570 18.871610 9.604675 -5.779311 15.600070 -8.177058 0.384387 21.322190 3.158297 2.805416 3.936462 -2.985790 -8.709285 -13.157731 5.302862 1.586773 -10.744499 8.061339 2.673617 -14.132534 3.360441 -1.028436 0.241405 4.571255 -2.880501 0.531503 1.784707 2.973276 -7.701838 17.845864 0.540075 -2.540442 -1.283122 7.609887 -11.939755 8.082251 9.779541 -15.353521 -13.340719 -23.205731 -9.711496 9.482594 -41.943425 -8.172318 4.515810 5.925354 -16.624416 1.453888 -3.075797 -4.018194 26.660105 -12.438613 -9.525908 -18.497288 22.536998 9.677958 5.569302 54.343308 -9.678959 2.990355 -7.899685 27.892940 4.600537 3.299011 4.839793 10.136272 14.944745 7.754739 -7.009091 
-1.824199 -0.415416 1.872745 -174.310965 -43.811382 -15.819064 10.882118 20.061405 9.530134 -5.668088 19.725815 -6.842406 0.059481 22.121520 3.671439 3.740457 3.736712 -3.049901 -9.781178 -14.663409 7.397103 0.613589 -14.439251 7.104303 1.274526 -15.597086 5.475713 0.720904 0.276094 4.775076 -2.904180 1.214759 -0.546830 3.295407 -7.155987 17.155077 0.370113 -1.827838 -1.385409 8.883976 -11.608436 8.384142 7.988312 -15.637621 -10.786993 -22.042135 -9.771852 8.986632 -40.144578 -9.347340 4.766054 8.373519 -26.974362 -1.277331 0.228480 -6.359506 20.251013 -14.076687 -9.722856 -17.326314 21.990228 11.464777 5.323921 51.378663 -6.214926 4.356217 -9.636000 38.551180 4.219535 -1.371642 6.036968 9.091676 15.636332 7.941893 -6.941480 
-1.798398 -0.406276 1.845356 -171.971747 -45.177890 -17.201307 11.898894 20.192997 8.923543 -5.175310 21.585673 -6.038477 -0.703052 21.422416 5.640181 4.207981 4.830795 -3.518283 -7.714066 -13.718600 9.682862 0.745664 -14.679754 1.602035 0.364415 -16.139361 3.851017 2.364903 -0.720262 6.994471 -3.623501 1.095840 -2.167731 3.595141 -7.935455 16.679918 0.570808 -2.217816 -1.567817 9.788219 -12.260682 11.033768 7.774210 -16.699742 -8.147510 -20.575704 -10.337897 8.659803 -38.497998 -10.460386 5.301516 9.639465 -35.143011 0.078393 -0.035066 -7.285921 18.960436 -15.157812 -9.900011 -16.952516 21.181482 12.489924 4.516847 49.611408 -4.185229 6.480684 -9.512546 49.119932 7.700367 -1.852944 7.008546 9.226192 16.267538 7.705912 -6.719220 
-1.765071 -0.397147 1.809509 -172.345494 -45.013547 -16.891505 15.299236 20.841938 7.533883 -3.920587 22.351657 -4.492674 -2.675736 20.421576 9.436808 5.421506 5.556095 -5.727245 -4.897054 -12.768041 11.280956 2.453173 -13.481502 -0.538752 -0.879434 -15.389159 0.623767 3.415851 -1.611557 9.776292 -3.398327 1.117462 -3.399339 4.330361 -8.391027 16.973261 0.780786 -2.526495 -1.961109 11.938519 -15.537777 14.042316 8.024721 -21.444362 -3.801970 -20.012124 -9.882418 8.464964 -38.511022 -12.548971 6.184485 9.534027 -40.040499 2.936546 0.686484 -8.314536 19.916960 -16.484151 -10.544594 -17.241246 21.121740 12.860922 4.261581 48.852527 -3.796861 7.965818 -8.123503 52.924296 10.117517 -3.192992 8.192939 7.296531 16.783201 7.609737 -6.070364 
-1.729162 -0.385201 1.766782 -172.466588 -48.290078 -18.384669 20.422853 21.252998 6.300243 -0.914981 21.547463 2.754773 -4.315479 20.109992 9.102078 5.991516 6.119031 -9.012718 -0.997356 -11.242173 13.221737 3.642139 -10.655774 -1.121097 -3.019292 -15.026415 -4.276003 4.811719 -1.951022 13.021942 -2.956639 1.592674 -2.272358 5.194507 -7.871228 18.431021 1.079407 -2.144342 -1.766132 14.992030 -19.156942 16.511442 7.629347 -27.366697 -0.582134 -19.127599 -7.709155 8.630606 -41.370515 -12.328652 6.268263 8.920927 -42.281956 2.716249 -0.837346 -7.861941 18.418561 -18.157873 -10.765682 -17.165341 21.373986 14.517326 5.623064 48.545571 -1.267795 9.056817 -5.873479 47.984054 13.535106 -2.735402 7.623447 6.397204 16.436788 6.663245 -4.216526 
-1.700191 -0.376517 1.734111 -167.430558 -54.210827 -24.414293 18.672030 13.977799 5.672838 -1.382631 3.681965 8.483707 -3.819886 13.114312 -0.687254 3.893123 7.713369 -8.454455 -0.703804 -9.970126 15.747567 3.718935 -6.573581 -0.984877 -3.683632 -13.176697 -6.274058 6.732796 -3.474748 13.046818 -3.243104 2.854892 -0.964659 5.420168 -7.203650 22.091485 0.998587 -1.242355 -2.160157 13.828865 -20.167229 19.819400 7.607906 -27.295268 0.133970 -21.208874 -5.725770 8.894533 -43.813170 -9.063342 7.461850 6.218620 -37.025807 4.456211 -2.329330 -8.360111 21.039825 -17.451055 -9.054954 -15.886010 23.443652 15.822084 7.760795 46.742790 1.018764 8.661927 -5.118503 38.715486 13.594145 -0.811354 8.877835 8.385005 14.746867 4.778678 -0.982213 
-1.679565 -0.376832 1.720923 -156.714880 -62.376674 -33.180053 11.952685 5.757967 2.619476 -3.821743 -8.182666 11.974773 -2.632280 8.815352 0.403577 1.617079 8.658120 -9.598995 -1.524578 -7.847979 15.527622 2.667274 -1.905579 -1.099530 -1.828960 -11.621722 -5.285999 3.406060 -2.560859 11.518758 -2.283841 4.536728 -0.123051 4.236842 -6.173729 22.395796 0.485418 0.168260 -2.067567 8.352755 -19.982704 23.721392 7.996382 -21.936723 2.009041 -23.100080 -4.543022 8.502355 -49.945333 -4.512792 9.785010 3.661489 -23.967035 7.060236 -5.304786 -6.936040 21.747874 -16.009739 -7.972132 -13.968365 23.043688 14.933220 8.083795 48.057025 1.457301 7.672298 -6.987542 27.272368 8.018878 2.040267 8.752758 10.653234 14.830223 4.623961 -1.631565 
-1.661020 -0.378872 1.717693 -144.918105 -69.295486 -42.415264 7.613226 6.673480 -4.548028 -3.727025 1.390328 15.069726 -0.557349 10.963576 1.449149 0.895444 8.123027 -7.897615 -1.494986 -6.180193 14.676338 1.949600 0.944100 -2.209474 -0.646696 -9.326511 -4.110350 2.505613 -1.541312 12.175028 -0.253741 5.346597 1.388011 3.337234 -6.239972 23.023216 0.006512 0.788355 -2.433709 5.154453 -18.785608 25.854980 6.717186 -17.781155 1.195697 -24.911321 -3.965206 9.038813 -55.388401 0.158287 11.049153 2.550414 -18.987415 8.073256 -10.389408 -4.972228 19.161486 -15.323689 -8.944444 -15.813695 22.087936 13.326569 8.252749 47.059741 1.434426 5.679042 -8.630868 21.350335 1.173451 4.058702 7.221054 10.470485 16.167238 5.443932 -5.779472 
-1.636677 -0.378146 1.722045 -136.659955 -73.180844 -46.837554 3.808596 8.466255 -12.680854 -3.547312 11.238875 13.161846 1.375252 11.514129 0.167189 -1.391756 8.353135 -4.628544 -0.615525 -5.298445 13.230763 1.463993 1.823829 -4.465126 -0.715092 -7.694587 -4.027471 5.272174 -1.262125 15.381411 0.806809 5.596260 0.841765 3.145896 -6.940498 22.731828 -0.153306 0.721336 -3.079991 3.268900 -16.850216 28.685589 4.791767 -15.378540 1.705595 -25.124375 -3.903591 9.493356 -57.271998 3.417894 12.618993 1.102949 -21.581963 10.578013 -13.316226 -5.129636 16.389603 -15.164147 -10.219940 -18.609570 21.255033 11.393675 8.597042 46.168461 -0.418215 5.377152 -9.448710 19.461875 -1.487377 3.489372 6.701723 8.594085 17.447178 6.613709 -9.411406 
-1.598339 -0.371878 1.728271 -132.659992 -76.700043 -49.370493 2.511178 10.662775 -13.538621 -3.512738 17.800302 8.600545 2.385709 14.157150 1.109991 -1.566363 7.485802 -3.367938 1.062289 -4.977259 14.063565 1.449975 2.836293 -4.144665 -1.182496 -7.573266 -5.363660 7.609963 -0.440775 17.201710 0.896814 5.555911 -0.413768 2.857586 -7.107615 22.249823 -0.531499 0.571191 -3.030845 2.979933 -14.353851 29.986539 2.833721 -14.333674 3.735688 -24.064914 -3.897474 9.102106 -55.007453 2.354650 12.713027 0.819540 -22.559860 10.795543 -10.638389 -5.927658 15.940920 -14.815055 -10.532651 -19.205596 21.181589 9.959911 8.503258 47.412906 -2.071015 6.507233 -8.878404 17.940006 -0.551233 0.834048 6.669847 7.281048 17.611155 6.989920 -9.936899 
-1.550102 -0.367947 1.736533 -126.602543 -78.644812 -56.541222 2.872466 9.496184 -8.151548 -3.009760 14.398150 6.625542 3.954104 17.296680 2.264023 -0.102054 6.575694 -3.119432 1.428026 -4.261920 14.456247 1.044589 4.481062 3.898377 -1.199961 -8.314697 -7.605120 7.459570 0.515750 15.151466 -1.669260 5.247418 -1.860590 1.884714 -7.147225 24.811132 -1.276214 0.253282 -3.902521 2.159117 -11.824651 30.808127 3.229071 -12.470783 6.572712 -24.486690 -5.150661 9.065770 -48.078550 -2.273094 11.534948 1.451800 -21.705480 11.253212 -6.142743 -5.768631 22.102830 -14.414943 -10.248849 -18.196866 23.472354 9.644027 8.877763 48.954540 -2.061004 7.296259 -9.470939 18.304752 -0.352036 0.004881 7.404676 7.568722 17.712947 6.679729 -7.271996 
